<svg preserveAspectRatio="none" width="100%" height="100%" overflow="visible" style="display: block;" viewBox="0 0 96.7543 31.4847" fill="none" xmlns="http://www.w3.org/2000/svg">
<path id="Vector" d="M94.3179 31.4847H95.3822C96.2442 31.4847 96.7543 30.9719 96.7543 30.1054V7.09975C96.7543 6.23328 96.2442 5.72047 95.3822 5.72047H94.3179C93.4559 5.72047 92.9457 6.23328 92.9457 7.09975V16.8608C92.9457 19.9023 91.4856 22.1922 88.6973 22.1922C85.9091 22.1922 84.1411 19.9023 84.1411 16.8608V7.09975C84.1411 6.23328 83.6309 5.72047 82.7689 5.72047H81.7046C80.8426 5.72047 80.3325 6.23328 80.3325 7.09975V17.7715C80.3325 23.0676 83.7189 25.9057 88.7061 25.9057C93.6934 25.9057 92.8754 25.0746 94.054 24.049C94.5994 23.6511 94.5202 23.3063 93.9397 23.0145C93.2712 22.6962 92.9633 22.8554 92.9633 23.4831V30.0789C92.9369 30.9542 93.4559 31.467 94.3179 31.467V31.4847ZM68.1326 25.9234C71.3607 25.9234 73.0495 24.6148 73.7532 23.6776V24.1109C73.7532 24.9773 74.2633 25.4901 75.1253 25.4901H76.2248C77.0868 25.4901 77.597 24.9773 77.597 24.1109V1.37928C77.597 0.512809 77.0868 0 76.2248 0H75.1253C74.2633 0 73.7532 0.512809 73.7532 1.37928V6.08297C73.7532 7.6214 73.7532 7.66561 73.3222 7.34731C72.1787 6.472 70.6043 5.84425 68.1326 5.84425C62.5473 5.84425 59.1257 10.265 59.1257 15.9236C59.1257 21.5822 62.5473 25.9234 68.1326 25.9234ZM68.9946 22.4044C65.0981 22.4044 62.9431 19.92 62.9431 15.959C62.9431 11.998 65.1069 9.27477 68.9946 9.27477C72.8824 9.27477 74.492 11.6443 74.492 15.959C74.492 20.2736 72.3283 22.4044 68.9946 22.4044ZM47.4096 25.9234C50.5497 25.9234 52.3265 24.6148 53.0742 23.6776V24.1109C53.0742 24.9773 53.5843 25.4901 54.4463 25.4901H55.5106C56.3726 25.4901 56.8828 24.9773 56.8828 24.1109V1.37928C56.8828 0.512809 56.3726 0 55.5106 0H54.4463C53.5843 0 53.0742 0.512809 53.0742 1.37928V6.08297C53.0742 7.6214 53.0741 7.66561 52.608 7.34731C51.4293 6.472 49.8988 5.84425 47.4184 5.84425C41.8331 5.84425 38.4115 10.265 38.4115 15.9236C38.4115 21.5822 41.8331 25.9234 47.4184 25.9234H47.4096ZM48.2716 22.4044C44.3751 22.4044 42.2201 19.92 42.2201 15.959C42.2201 11.998 44.3839 9.27477 48.2716 9.27477C52.1594 9.27477 53.8218 11.6443 53.8218 15.959C53.8218 20.2736 51.5877 22.4044 48.2716 22.4044ZM19.3773 17.8245V7.10859C19.3773 6.24212 19.8874 5.72931 20.7494 5.72931H21.8137C22.6757 5.72931 23.1859 6.24212 23.1859 7.10859V17.3825C23.1859 20.8218 24.5932 22.5636 27.7421 22.5636C30.891 22.5636 32.2984 20.8218 32.2984 17.3825V7.10859C32.2984 6.24212 32.8085 5.72931 33.6705 5.72931H34.7348C35.5968 5.72931 36.107 6.24212 36.107 7.10859V17.8157C36.107 23.6246 32.4127 25.9145 27.7333 25.9145C23.0539 25.9145 19.3773 23.6246 19.3773 17.8245ZM10.4583 25.4901H1.37215C0.510159 25.4901 0 24.9773 0 24.1109V7.09975C0 6.23328 0.510159 5.72047 1.37215 5.72047H9.90413C14.9002 5.72047 16.8616 7.89549 16.8616 11.0961C16.8616 14.2968 16.0348 14.2525 14.5395 14.9333C13.8711 15.2074 13.8359 15.3312 14.5395 15.5699C16.3427 16.2773 17.407 17.745 17.407 20.0791C17.4158 23.5096 15.0145 25.4813 10.4583 25.4813V25.4901ZM3.87897 10.2739V12.608C3.87897 13.4745 4.38913 13.9873 5.25112 13.9873H9.69302C11.9272 13.9873 12.9211 12.9175 12.9211 11.4144C12.9211 9.91136 11.9448 8.88574 9.69302 8.88574H5.26871C4.40672 8.89458 3.88777 9.40739 3.88777 10.2739H3.87897ZM9.97449 16.9492H5.25992C4.39792 16.9492 3.88777 17.462 3.88777 18.3285V20.9367C3.88777 21.8032 4.39792 22.316 5.25992 22.316H9.98329C12.4197 22.316 13.6424 21.2816 13.6424 19.6724C13.6424 18.0633 12.4197 16.9492 9.97449 16.9492Z" fill="var(--fill-0, white)"/>
</svg>
