<svg preserveAspectRatio="none" width="100%" height="100%" overflow="visible" style="display: block;" viewBox="0 0 445.823 22.4624" fill="none" xmlns="http://www.w3.org/2000/svg">
<path id="HR Trace Line" d="M0 14.6488C8.98187 14.6488 43.6873 13.5984 53.8946 14.6488C64.1018 15.7029 53.0765 19.9194 61.2437 20.9698C69.4108 22.024 94.7237 21.8936 102.891 20.9698C111.055 20.0498 107.585 16.3622 110.24 15.4422C112.894 14.5184 116.344 16.8874 118.814 15.4422C121.285 13.9932 123.449 8.19731 125.062 6.74834C126.674 5.29937 127.062 5.95867 128.491 6.74834C129.92 7.53801 132.207 10.7004 133.636 11.4901C135.065 12.2798 135.696 12.5442 137.065 11.4901C138.431 10.4359 140.555 6.22313 141.843 5.169C143.129 4.11486 143.313 3.45556 144.782 5.169C146.251 6.88243 144.985 13.7287 150.662 15.4422C156.338 17.1519 172.913 14.7829 178.833 15.4422C184.753 16.0977 183.324 18.7312 186.182 19.3905C189.04 20.0498 193.124 20.1802 195.982 19.3905C198.84 18.6008 197.818 15.4422 203.331 14.6488C208.844 13.8591 223.542 15.4422 229.054 14.6488C234.567 13.8591 232.32 10.7004 236.404 9.91074C240.487 9.12107 249.469 9.12107 253.553 9.91074C257.636 10.7004 258.451 13.8591 260.902 14.6488C263.352 15.4422 265.803 13.9932 268.251 14.6488C270.702 15.3081 273.152 17.9415 275.6 18.6008C278.051 19.2601 280.745 20.9698 282.949 18.6008C285.156 16.2318 287.36 6.74834 288.829 4.37933C290.298 2.00659 290.298 2.79999 291.771 4.37933C293.24 5.95867 294.218 12.2798 297.651 13.8591C301.08 15.4422 308.673 14.6488 312.349 13.8591C316.022 13.0694 316.022 9.91074 319.698 9.12107C323.371 8.32768 330.72 8.32768 334.396 9.12107C338.072 9.91074 336.643 13.0694 341.745 13.8591C346.85 14.6488 359.916 13.2035 365.018 13.8591C370.123 14.5184 369.92 17.1519 372.367 17.8112C374.818 18.4705 377.269 18.6008 379.716 17.8112C382.167 17.0215 384.207 13.8591 387.065 13.0694C389.923 12.2798 394.254 13.8591 396.865 13.0694C399.48 12.2798 401.276 9.12107 402.745 8.32768C404.214 7.53801 404.338 8.59214 405.687 8.32768C407.032 8.06694 409.32 7.0128 410.829 6.74834C412.341 6.4876 413.24 7.40764 414.749 6.74834C416.261 6.08904 418.545 3.45556 419.894 2.79999C421.243 2.14069 421.487 1.08655 422.832 2.79999C424.181 4.5097 426.469 11.3597 427.978 13.0694C429.49 14.7829 430.389 13.9932 431.898 13.0694C433.41 12.1494 435.694 8.46177 437.043 7.53801C438.389 6.61797 438.88 8.59214 439.981 7.53801C441.083 6.4876 442.719 2.27106 443.658 1.21692C444.596 0.166513 445.29 1.21692 445.618 1.21692" stroke="var(--stroke-0, #FF9500)" stroke-width="1.5"/>
</svg>
