<svg preserveAspectRatio="none" width="100%" height="100%" overflow="visible" style="display: block;" viewBox="0 0 75 75" fill="none" xmlns="http://www.w3.org/2000/svg">
<g id="price tag" clip-path="url(#clip0_0_4)">
<path id="Vector" d="M62.4065 1.06822C68.9998 1.96019 73.2048 7.13039 73.9367 13.5878L73.9047 17.1343L73.7177 18.9396C73.1727 24.2594 71.6179 29.3601 69.128 34.0657C68.4708 35.3048 67.2419 35.8977 66.0184 35.2407C64.891 34.6372 64.5758 33.3393 65.2116 32.1589C67.8831 27.1916 69.3471 21.6743 69.5661 16.0234C69.6356 14.1967 69.4753 12.5249 68.8128 10.8745C68.0701 9.02115 66.8519 7.46154 65.094 6.46809C62.134 4.80701 58.5114 5.08475 55.7918 7.09301C53.1684 9.02649 51.9181 12.2098 52.3883 15.58C52.7356 18.069 53.1364 20.4458 53.6333 22.9027C53.8951 24.2006 53.147 25.3863 51.9021 25.6053C50.6572 25.8243 49.5779 24.943 49.3375 23.6398C48.8513 21.0173 48.4024 18.5016 48.0605 15.8738C47.1094 8.52443 52.2174 2.05633 59.4625 1.10027L62.4065 1.05754V1.06822Z" stroke="var(--stroke-0, black)" stroke-opacity="0.5" stroke-width="3" stroke-linecap="round" stroke-linejoin="round"/>
<path id="Vector_2" d="M61.0066 16.1836C61.5944 20.5847 63.6995 39.332 61.9684 41.0625L30.5461 72.4737C28.6439 74.3751 25.5557 74.4338 23.6375 72.5217L2.52191 51.4243C0.68925 49.5923 0.528959 46.5105 2.40436 44.6357L34.0297 12.9896C34.938 12.776 35.7234 12.7012 36.6424 12.6745C39.7788 12.589 42.8831 12.7012 46.0034 12.8401C45.9179 13.7801 45.8378 14.6133 45.9553 15.4679L46.6018 20.1574C44.8066 22.876 45.4958 26.5026 48.1406 28.3507C50.7908 30.1987 54.4668 29.5684 56.3368 26.9406C58.2069 24.3128 57.726 20.6221 54.953 18.6779C54.6164 16.9954 54.408 15.3557 54.3332 13.4703L58.9229 14.0578C60.0983 14.2074 60.7555 14.9979 61.0013 16.1836H61.0066ZM21.6232 56.696L24.4443 53.8812C25.6999 54.7839 27.0998 55.4088 28.6439 55.6224C30.8773 55.9269 32.9184 55.0937 34.4358 53.4967C37.3424 50.4469 36.1562 47.1888 34.6388 43.7651C33.8748 42.0453 32.7581 39.7005 33.816 38.5842C34.7243 37.6282 36.0761 37.9433 37.2355 38.894C38.8384 40.3308 39.9712 42.0934 40.6657 44.1978L44.5448 41.9492C43.8555 40.0637 42.8457 38.5629 41.4886 37.1315L43.8769 34.6959L41.2374 32.0627L38.6407 34.6478C37.3851 33.8307 36.1455 33.2324 34.6388 33.0348C31.3849 32.6129 28.2432 34.728 27.6021 37.9593C26.6403 42.7984 32.4856 47.9419 29.4507 50.1638C28.2486 51.0451 26.6831 50.2279 25.4488 49.1009C23.8726 47.4665 22.7506 45.5384 22.0881 43.3218L18.1075 45.6933C18.8609 47.8992 20.0256 49.7365 21.5805 51.419L18.9731 54.0361L21.6232 56.6906V56.696Z" stroke="var(--stroke-0, black)" stroke-opacity="0.5" stroke-width="3" stroke-linecap="round" stroke-linejoin="round"/>
</g>
<defs>
<clipPath id="clip0_0_4">
<rect width="75" height="75" fill="white"/>
</clipPath>
</defs>
</svg>
