<svg preserveAspectRatio="none" width="100%" height="100%" overflow="visible" style="display: block;" viewBox="0 0 66 75" fill="none" xmlns="http://www.w3.org/2000/svg">
<path id="Vector" d="M28.7101 0C32.6405 0.647262 35.7872 3.60113 36.3928 7.60239L37.414 14.2986L42.5912 9.79131C46.3554 6.50792 52.1026 6.99043 55.3205 10.7445C58.4909 14.4398 58.1347 20.0651 54.2162 23.3603L61.6733 26.0905C64.9862 27.3027 66.8386 30.9509 65.6274 34.2813L62.5045 42.8605C62.0889 44.0138 60.7471 44.4022 59.6902 44.0373L58.016 43.4489V68.3979C57.9685 71.8578 55.4749 74.5175 52.0194 75H6.44576C2.97846 74.5175 0.496724 71.8578 0.449227 68.3862V37.8236C0.449227 36.4703 1.3873 35.517 2.74097 35.517L35.7872 35.4582L1.39917 22.9955C0.377981 22.6189 -0.263233 21.4067 0.104872 20.3946L3.25157 11.839C4.4865 8.49678 8.25066 6.83744 11.6111 8.02605L18.6882 10.5563C17.762 5.41346 21.2887 0.812019 26.3353 0H28.6983L28.7101 0ZM33.1274 15.7461L32.0231 8.29672C31.7025 6.04896 29.7907 4.48376 27.5821 4.41315C25.3734 4.34254 23.4142 5.96658 23.0342 8.09666C22.6542 10.2267 23.8654 12.4392 26.0265 13.2041L33.1274 15.7461ZM25.8603 27.1497L28.8882 18.9118L10.1149 12.145C8.90375 11.7802 7.74006 12.3804 7.31259 13.5337L5.05647 19.6532L25.8603 27.1497ZM39.7414 18.1469L47.056 20.7948C49.2052 21.4773 51.4376 20.5476 52.4825 18.6411C53.5275 16.7347 53.0406 14.3221 51.307 12.9923C49.5733 11.6625 47.1628 11.6272 45.4767 13.11L39.7295 18.1469H39.7414ZM34.1961 30.1506L37.2121 21.9128L33.0561 20.4299L30.0401 28.6678L34.1961 30.1506ZM61.4476 32.8221C61.8751 31.657 61.0914 30.5272 60.0465 30.1506L41.38 23.4191L38.3521 31.657L59.144 39.1652L61.4476 32.8338V32.8221ZM22.583 70.5986V39.8831H4.87835V68.2332C4.84273 69.5865 5.79267 70.5986 7.14635 70.5986H22.583ZM31.4293 70.5986V39.8831L27.0121 39.9066V70.5986H31.4293ZM53.575 68.3156V41.8249L48.184 39.8831H35.8703V70.5986H51.307C52.6013 70.5986 53.5512 69.6807 53.5631 68.3156H53.575Z" fill="var(--fill-0, black)" fill-opacity="0.5"/>
</svg>
