<svg preserveAspectRatio="none" width="100%" height="100%" overflow="visible" style="display: block;" viewBox="0 0 75 50" fill="none" xmlns="http://www.w3.org/2000/svg">
<g id="delivery car" clip-path="url(#clip0_0_8)">
<path id="Vector" d="M-6.67523e-10 28.6309V27.6391C0.376054 26.8411 1.00281 26.5618 1.90876 26.5618L12.5921 26.5732C13.5607 26.5732 14.1704 27.4282 14.0849 28.2832C14.0052 29.0869 13.3556 29.6968 12.4383 29.6911L1.31619 29.6797C0.729317 29.6797 0.296285 29.0185 -0.00569779 28.6309H-6.67523e-10Z" fill="var(--fill-0, black)" fill-opacity="0.5"/>
<path id="Vector_2" d="M16.9281 49.9886C13.2417 50.1254 10.37 47.3837 10.3529 43.77L7.31026 43.7529C4.79754 43.7415 2.71785 41.6553 3.02553 39.096L3.6124 34.1655C3.70926 33.3447 4.45567 32.7975 5.18499 32.8146C6.03396 32.8374 6.61513 33.4473 6.72909 34.3764H47.7076L51.3656 4.46306C51.4567 3.69927 50.9838 3.18057 50.2146 3.12358H12.4725C11.2702 3.12358 10.4725 3.91587 10.3244 5.03306L10.1421 6.44665C10.0281 7.33584 9.23612 7.88874 8.43843 7.80324C7.64073 7.71774 6.9513 6.99954 7.04816 6.10465C7.12224 5.42066 7.16782 4.85066 7.31596 4.12677C7.7433 2.01778 9.69764 0.0227998 12.0394 0.0170999L50.2146 0C52.8356 0 54.7501 2.24578 54.4595 4.78226L54.1119 7.80894L64.2995 7.84314C67.0744 7.85454 69.6612 9.65002 70.5386 12.2834L74.2821 23.4838C74.9145 25.3648 75.1481 27.2287 74.9088 29.1952L73.7237 38.9877C73.416 41.5299 71.4902 43.713 68.8293 43.7358L65.2682 43.7643C64.4363 47.2298 61.4734 49.886 57.8724 50C54.2714 50.114 51.3485 47.3609 51.3314 43.7585H24.2726C23.4521 47.1728 20.569 49.8575 16.9224 49.9943L16.9281 49.9886ZM58.4422 23.1703L59.2057 16.946C59.4393 15.464 60.6814 14.1017 62.254 14.0903L67.8322 14.0447C67.4675 12.329 66.0716 10.9724 64.2654 10.9667L53.7187 10.9325L50.8528 34.3764H71.1312L71.701 29.7538C71.832 28.6993 71.8719 27.6847 71.7921 26.5675H61.3766C59.5419 26.5618 58.2143 25.0456 58.4422 23.1703ZM70.9603 23.4268L68.892 17.1797L62.3167 17.2025L61.5589 23.4382L70.9603 23.4211V23.4268ZM10.991 40.635C11.5779 39.3012 12.3984 38.4234 13.424 37.5057H6.34164L6.12512 39.5121C6.05675 40.1334 6.6892 40.6236 7.25329 40.6236L10.9967 40.635H10.991ZM46.9384 40.6293L47.3087 37.5H22.3695C23.3267 38.4519 23.8794 39.4095 24.2384 40.635H46.9441L46.9384 40.6293ZM52.0037 40.6293C52.5849 39.3525 53.3427 38.5146 54.4424 37.5171L50.4653 37.5L50.0836 40.635H52.0094L52.0037 40.6293ZM70.5956 38.7312L70.7323 37.5H63.3537C64.2654 38.3949 64.875 39.3696 65.2226 40.635L68.7495 40.6008C69.7295 40.5894 70.493 39.6717 70.5956 38.7312ZM16.9338 46.8593C19.2129 46.6655 20.9964 44.9213 21.2869 42.7497C21.5604 40.7034 20.0676 39.0048 17.9879 39.0732C15.7202 39.1473 13.7886 40.9086 13.4639 43.143C13.31 44.2031 13.6291 45.1892 14.3128 45.896C14.9168 46.523 15.8342 46.9505 16.9281 46.8536L16.9338 46.8593ZM57.9408 46.8536C60.2712 46.6655 62.0774 44.8301 62.2939 42.6015C62.4819 40.6749 61.086 39.0846 59.143 39.0789C56.7614 39.0675 54.7102 40.92 54.4481 43.2912C54.2259 45.3374 55.787 47.0303 57.9408 46.8536Z" fill="var(--fill-0, black)" fill-opacity="0.5"/>
<path id="Vector_3" d="M16.0393 14.0561H3.52123C2.59249 14.0618 1.91446 13.4918 1.84608 12.5969C1.78341 11.7932 2.41586 10.9382 3.37879 10.9382H15.9652C16.8541 10.9325 17.5036 11.5652 17.572 12.3461C17.6404 13.127 17.0706 14.0504 16.045 14.0504L16.0393 14.0561Z" fill="var(--fill-0, black)" fill-opacity="0.5"/>
<path id="Vector_4" d="M13.5436 21.8707L6.4442 21.8821C5.52116 21.8821 4.85452 21.2038 4.82033 20.383C4.78614 19.4881 5.46988 18.7415 6.4385 18.7472L13.6006 18.7586C14.4439 18.7586 15.0308 19.5337 15.0536 20.2462C15.082 21.0328 14.4952 21.8707 13.5379 21.8707H13.5436Z" fill="var(--fill-0, black)" fill-opacity="0.5"/>
</g>
<defs>
<clipPath id="clip0_0_8">
<rect width="75" height="50" fill="white"/>
</clipPath>
</defs>
</svg>
