<svg preserveAspectRatio="none" width="100%" height="100%" overflow="visible" style="display: block;" viewBox="0 0 23.9997 23.9995" fill="none" xmlns="http://www.w3.org/2000/svg">
<g id="fWvr6F.tif">
<path id="Vector" d="M10.8148 0.0626399C18.0623 -0.680528 24.3611 5.28975 23.9835 12.6198C23.6561 18.9688 18.3965 23.9735 12.0456 23.9994C5.69001 24.0262 0.394774 19.0513 0.0210836 12.7166C-0.355497 6.32922 4.35416 0.725258 10.8148 0.0626399ZM5.74202 3.89163C4.5882 3.93287 3.79459 4.91385 3.8726 5.97921C3.95061 7.04458 4.84054 7.82802 5.90093 7.78104C6.96133 7.73405 7.81465 6.8269 7.75976 5.74236C7.70775 4.72494 6.86983 3.85136 5.74202 3.89163ZM15.0207 11.9744C15.7681 11.985 16.3469 12.3216 16.5646 13.012C16.7071 13.4655 16.7486 13.9853 16.7678 14.4964L16.7697 20.1291L20.1407 20.1243V13.8242C20.0694 11.8689 19.7294 9.89163 17.8003 9.26258C15.8712 8.63352 13.8775 9.066 12.872 10.7767L12.847 9.27312L9.61762 9.27984V20.1243L12.9866 20.1291V14.6863C13.0222 14.2308 13.055 13.7551 13.1465 13.3476C13.3497 12.4472 14.0778 11.961 15.0207 11.9744ZM7.50068 20.1099V9.27504L4.12687 9.276V20.1349L7.50068 20.109V20.1099Z" fill="var(--fill-0, black)" fill-opacity="0.5"/>
</g>
</svg>
