<svg preserveAspectRatio="none" width="100%" height="100%" overflow="visible" style="display: block;" viewBox="0 0 24 23.9991" fill="none" xmlns="http://www.w3.org/2000/svg">
<g id="Group">
<path id="Vector" d="M6.0578 0H17.9377C21.1634 0.518771 23.4831 2.83504 24 6.06507V17.934C23.4804 21.1377 21.2209 23.4394 17.9861 23.9973L6.06602 23.9991C2.56817 23.4485 -0.0109245 20.6271 3.47951e-05 17.0867L0.0319995 6.55017C0.0420455 3.14175 2.74352 0.539704 6.0578 0ZM17.3422 21.8357C19.735 21.8321 21.7643 19.8207 21.7634 17.4635L21.7607 6.62844C21.7607 4.2339 19.6483 2.27713 17.2884 2.27713H6.71627C4.35636 2.27713 2.24487 4.2339 2.24396 6.62935L2.24122 17.4598C2.24122 19.9245 4.39838 21.8585 6.80943 21.8539L17.3413 21.8366L17.3422 21.8357Z" fill="var(--fill-0, black)" fill-opacity="0.5"/>
<path id="Vector_2" d="M11.1869 5.87759C14.6966 5.41889 17.7762 7.90444 18.1963 11.301C18.6145 14.6812 16.2135 17.792 12.8445 18.2416C9.41602 18.6985 6.27709 16.3131 5.82136 12.8737C5.36564 9.43436 7.69815 6.33356 11.1878 5.87759H11.1869ZM11.7997 8.03641C9.49821 8.16109 7.80591 10.1333 7.98583 12.3895C8.15844 14.5502 10.0444 16.2375 12.2864 16.0828C14.5285 15.9281 16.2071 14.0268 16.0227 11.7215C15.8564 9.65552 14.0491 7.91445 11.8006 8.03641H11.7997Z" fill="var(--fill-0, black)" fill-opacity="0.5"/>
<path id="Vector_3" d="M18.283 4.1438C19.1552 4.03914 19.81 4.69352 19.8877 5.42799C19.9753 6.25165 19.3908 6.93515 18.6474 7.03527C17.8209 7.1463 17.1195 6.56746 17.0108 5.84118C16.8848 5.00023 17.3926 4.25028 18.283 4.1438Z" fill="var(--fill-0, black)" fill-opacity="0.5"/>
</g>
</svg>
